<svg width="55" height="63" viewBox="0 0 55 63" fill="none" xmlns="http://www.w3.org/2000/svg">
<g id="Clip path group" opacity="0.8">
<mask id="mask0_17_80" style="mask-type:luminance" maskUnits="userSpaceOnUse" x="0" y="0" width="55" height="63">
<g id="185a9b1c00">
<path id="Vector" d="M0 0H54.6069V62.2467H0V0Z" fill="white"/>
</g>
</mask>
<g mask="url(#mask0_17_80)">
<g id="Group">
<path id="Vector_2" d="M27.3034 0C12.2237 0 0 13.9339 0 31.1233C0 48.3128 12.2237 62.2467 27.3034 62.2467C42.3831 62.2467 54.6069 48.3128 54.6069 31.1233C54.6069 13.9339 42.3831 0 27.3034 0ZM19.0628 46.3796H13.3239V25.6517H19.0628V46.3796ZM16.0462 23.0588H16.0047C13.9269 23.0588 12.5812 21.4746 12.5812 19.4641C12.5812 17.4536 13.9684 15.8664 16.087 15.8664C18.2056 15.8664 19.5052 17.4131 19.5493 19.4611C19.5493 21.4686 18.2056 23.0588 16.0488 23.0588H16.0462ZM42.025 46.3796H35.5158V35.6517C35.5158 32.8442 34.4973 30.9275 32.2589 30.9275C30.5465 30.9275 29.5939 32.222 29.1515 33.467C28.9849 33.9151 29.0125 34.5372 29.0125 35.1601V46.3766H22.5659C22.5659 46.3766 22.6482 27.3763 22.5659 25.6487H29.0125V28.9012C29.3918 27.4783 31.4531 25.4491 34.7409 25.4491C38.8194 25.4491 42.025 28.4307 42.025 34.8517V46.3796Z" fill="white"/>
</g>
</g>
</g>
</svg>
