<svg width="56" height="63" viewBox="0 0 56 63" fill="none" xmlns="http://www.w3.org/2000/svg">
<path id="Vector" opacity="0.8" fill-rule="evenodd" clip-rule="evenodd" d="M27.9166 62.2884C43.0042 62.2884 55.2356 48.3444 55.2356 31.1442C55.2356 13.9432 43.0042 0 27.9166 0C12.8284 0 0.597656 13.9432 0.597656 31.1442C0.597656 48.3444 12.8284 62.2884 27.9166 62.2884ZM15.5087 17.8941L27.9166 29.2097L40.3239 17.8941L40.6822 17.5539H15.1504L15.5087 17.8941ZM42.0096 20.2236L42.4865 19.7708V43.2243C42.4865 44.0578 41.8936 44.7345 41.1618 44.7345H14.6708C13.939 44.7345 13.3461 44.0578 13.3461 43.2243V19.7708L13.823 20.2236L13.8435 20.2424L27.0893 32.3232C27.5728 32.764 28.2598 32.764 28.744 32.3232L41.9891 20.2424L42.0096 20.2236Z" fill="white"/>
</svg>
