<svg width="55" height="63" viewBox="0 0 55 63" fill="none" xmlns="http://www.w3.org/2000/svg">
<path id="Vector" opacity="0.8" d="M41.6622 33.8662C41.6439 33.8677 41.6249 33.8677 41.6066 33.8677C41.1205 33.8677 40.7136 33.4329 40.6841 32.8689C40.4623 28.5558 38.9145 24.4568 36.3303 21.3251C33.7441 18.1941 30.2604 16.2016 26.5202 15.7165C26.0132 15.6504 25.6488 15.1247 25.7057 14.5419C25.7633 13.9591 26.2232 13.537 26.7289 13.6061C30.9015 14.1476 34.7876 16.3706 37.6727 19.8636C40.5572 23.3573 42.2831 27.9317 42.531 32.7435C42.5604 33.3293 42.1718 33.8317 41.6622 33.8662ZM26.2729 21.2702C26.3305 20.6889 26.7865 20.2721 27.2974 20.3352C29.7815 20.6581 32.0968 21.9814 33.8135 24.0625C35.5315 26.1436 36.5599 28.8667 36.7078 31.7326C36.7372 32.3176 36.3486 32.8208 35.839 32.8554C35.82 32.8569 35.8017 32.8569 35.7834 32.8569C35.2973 32.8569 34.889 32.4228 34.8609 31.8588C34.7392 29.4916 33.89 27.2415 32.4717 25.524C31.0533 23.8057 29.141 22.7122 27.0881 22.4448C26.5811 22.3795 26.2167 21.853 26.2729 21.2702ZM40.1738 47.5625C40.1464 47.5948 39.0721 48.7596 39.0433 48.7926C37.0545 50.9871 33.9293 51.4235 31.3353 50.7258C30.388 50.4712 29.4662 50.1062 28.5738 49.6616C24.5504 47.6541 20.733 44.1033 17.6666 40.3693C14.582 36.654 11.6982 32.0886 10.1673 27.3685C9.82838 26.3223 9.56015 25.2453 9.38875 24.1459C8.92032 21.1358 9.4666 17.5775 11.4829 15.4146C11.513 15.3823 12.584 14.2144 12.6134 14.1837C14.6114 12.1709 16.3189 14.7244 17.9106 16.6875C19.2708 18.3638 21.556 21.1238 21.1765 23.6442C20.9665 25.0441 19.6712 26.067 19.2211 27.4406C18.6473 29.1904 18.9175 30.935 19.8805 32.4318C20.5249 33.4337 21.3106 34.5016 22.1487 35.4922C22.9658 36.5053 23.8523 37.4636 24.689 38.2559C25.9406 39.4395 27.4427 39.8443 28.9964 39.2788C30.2146 38.8364 31.1737 37.4073 32.403 37.2398C34.6156 36.9394 36.8942 39.7076 38.2792 41.3561C39.901 43.287 42.0325 45.3793 40.1738 47.5625ZM27.1299 0C12.1463 0 0 13.9433 0 31.1446C0 48.3443 12.1463 62.2884 27.1299 62.2884C42.1136 62.2884 54.2599 48.3443 54.2599 31.1446C54.2599 13.9433 42.1136 0 27.1299 0Z" fill="white"/>
</svg>
